<?xml version="1.0" encoding="UTF-8"?>
<svg xmlns="http://www.w3.org/2000/svg" xmlns:xlink="http://www.w3.org/1999/xlink" viewBox="0 0 180 180">
  <defs>
    <style>
      .cls-1 {
        fill: none;
      }

      .cls-2 {
        fill: #ffc545;
      }

      .cls-3 {
        isolation: isolate;
      }

      .cls-4 {
        fill: #fff;
      }

      .cls-5 {
        fill: #fcc02e;
      }

      .cls-6 {
        fill: url(#linear-gradient);
        mix-blend-mode: overlay;
        opacity: .27;
      }

      .cls-7 {
        fill: #f4a918;
      }

      .cls-8 {
        clip-path: url(#clippath);
      }
    </style>
    <linearGradient id="linear-gradient" x1="89.93" y1="134.04" x2="90.25" y2="-45.94" gradientUnits="userSpaceOnUse">
      <stop offset="0" stop-color="#fff"/>
      <stop offset=".07" stop-color="#f6f6f6"/>
      <stop offset=".19" stop-color="#dedede"/>
      <stop offset=".34" stop-color="#b8b7b7"/>
      <stop offset=".51" stop-color="#838081"/>
      <stop offset=".7" stop-color="#3f3c3d"/>
      <stop offset=".77" stop-color="#231f20"/>
    </linearGradient>
    <clipPath id="clippath">
      <rect class="cls-1" x=".02" y=".36" width="179.98" height="179.98" rx="27.09" ry="27.09"/>
    </clipPath>
  </defs>
  <g class="cls-3">
    <g id="Layer_1">
      <g>
        <rect class="cls-2" x=".02" y=".36" width="179.98" height="179.98" rx="27.09" ry="27.09"/>
        <rect class="cls-6" x=".02" y=".36" width="179.98" height="179.98" rx="27.09" ry="27.09"/>
        <path class="cls-7" d="M12.95,101.16c1.12.7,2.49,4.98,3.72,5.13,3.73.47,7.49.62,11.25.82,3.09.17,6.2.5,9.22,1.35,3.66,1.03,5.83,4.49,5.07,8.26-.56,2.77.72,5.28,3.49,6.92,2.65,1.56,5.64,1.97,8.55,2.6,3.72.81,7.51,1.35,10.88,3.27,1.36.77,2.55,1.84,3.22,3.25,1.17,2.49.24,5.5-1.95,7.21-2.99,2.34-6.42,3.82-9.93,5.09-2.94,1.07-5.46,2.8-7.84,4.77-4.95,4.08-9.11,8.91-13,14-3.37,4.41-7.15,8.44-11.59,11.82-1.23.94-3.11,3.24-4.69,3.55-3.77-1.28-7.77-2.99-10.44-5.92-6.53-7.18-8.9-10.26-8.9-26.8,0-8.81.03-25.29.02-34.1,0-1.33.84-1.96,1.58-2.81,2.38-2.72,4.8-4.13,7.3-6.74,1.26-1.32,2.54-.62,4.05-1.67Z"/>
        <path class="cls-7" d="M175.58,167.62c-1.6-1.76-4.7-5.26-6.4-6.92-4.8-4.69-9.95-8.92-16.02-11.78-5.16-2.43-10.39-4.68-15.58-7.04-3.38-1.54-6.7-3.23-9.47-5.78-1.92-1.77-3.41-3.92-3.49-6.71-.07-2.48,1.11-4.54,2.53-6.43,1.97-2.61,4.55-4.61,6.81-6.93,3.42-3.51,3.04-5.58.88-9.4-1.63-2.88-4.33-4.67-6.83-6.63-2.31-1.82-4.64-3.6-6.5-5.95-3.31-4.18-1.88-8.93,1.78-11.72.47-.36.88-.9,1.58-.85,2.51.35,4.86,1.25,7.2,2.16,5.44,2.11,10.85,4.31,16.01,7.1,7.29,3.94,13.96,2.58,20.1,8.19,3.87,3.53,7.4,7.42,11.05,11.19.4.41.57.86.57,1.44.03,9.68,0,25.5.1,35.18.1,9.23-.04,14.36-3.62,19.89-.22.34-.47.66-.71.99Z"/>
        <g>
          <path class="cls-4" d="M87.75,15.87c.38-.08.41-.48.64-.69.51-.47,1.05-1.01,1.79-.76.84.29,1.44.88,1.44,1.89,0,2.2,0,4.39,0,6.59,0,2.36-.02,4.72.03,7.08.02,1.04-.07,1.9-1.18,2.4-1.13.51-1.72-.23-2.39-.85-.09-.08-.19-.15-.29-.22-.02-5.15-.03-10.29-.05-15.44Z"/>
          <path class="cls-4" d="M89.77,34.98c-1.59,0-2.68-1.04-3.17-1.5-.04-.04-.08-.08-.12-.12h-.01s-.1-.08-.14-.11l-.97-.73-.06-18.64,1.19-.25c.07-.08.15-.16.23-.24l.04-.04c.63-.59,2.11-1.97,4.21-1.24,1.93.67,3.08,2.24,3.08,4.2,0,1.51,0,3.01,0,4.52v2.06c0,.69,0,1.38,0,2.06,0,1.63,0,3.32.03,4.96.02.95.08,3.47-2.62,4.68-.62.28-1.18.39-1.7.39Z"/>
        </g>
        <g>
          <path class="cls-4" d="M66.09,38.44c.07,1.04-.71,1.46-1.5,1.77-.96.38-1.67-.19-2.15-.92-1.22-1.84-2.38-3.73-3.53-5.62-1.11-1.82-2.17-3.67-3.28-5.49-.77-1.26-.52-2.5.69-3.22.88-.52,2.11-.1,2.75,1,2.23,3.77,4.44,7.55,6.68,11.31.22.37.35.71.33,1.16Z"/>
          <path class="cls-4" d="M63.99,42.77c-1.22,0-2.55-.56-3.59-2.13-1.22-1.85-2.39-3.75-3.58-5.69-.58-.94-1.14-1.91-1.69-2.83-.52-.88-1.05-1.78-1.59-2.66-.73-1.2-.97-2.53-.66-3.74.29-1.17,1.07-2.18,2.2-2.85,1.05-.62,2.34-.73,3.53-.31,1.05.38,1.96,1.15,2.57,2.16.8,1.35,1.6,2.7,2.39,4.06,1.4,2.38,2.85,4.84,4.29,7.25.3.5.69,1.28.68,2.37.05,1.32-.45,3.05-3.04,4.08-.45.18-.97.29-1.5.29Z"/>
        </g>
        <g>
          <path class="cls-4" d="M111.21,38.37c0-.47.06-.81.26-1.14,2.37-3.78,4.72-7.57,7.08-11.36.49-.79,1.2-1.16,2.16-1.04.85.11,1.17.76,1.51,1.42.35.67.02,1.25-.31,1.71-2.58,3.61-4.6,7.58-7.08,11.25-.81,1.19-2,1.41-2.99.57-.46-.38-.7-.89-.63-1.4Z"/>
          <path class="cls-4" d="M113.1,42.72c-1.01,0-2-.37-2.83-1.08-1.06-.9-1.6-2.13-1.5-3.4,0-.64.11-1.46.63-2.3,1.25-2.01,2.5-4.01,3.75-6.02,1.11-1.78,2.22-3.56,3.33-5.34,1.01-1.62,2.67-2.41,4.54-2.17,2.1.27,2.93,1.89,3.33,2.66l.03.05c.49.94.8,2.45-.49,4.25-1.36,1.9-2.54,3.88-3.8,5.99-1.03,1.72-2.09,3.49-3.24,5.21-.8,1.19-1.94,1.94-3.19,2.11-.19.03-.37.04-.56.04Z"/>
        </g>
        <g>
          <path class="cls-4" d="M51.07,53.97c.04,1.68-1.57,2.62-3.1,1.75-2.55-1.45-5.05-2.99-7.57-4.5-1.07-.64-2.16-1.25-3.19-1.95-1.29-.87-1.52-1.77-.85-2.85.58-.94,1.79-1.16,2.99-.44,3.53,2.09,7.05,4.21,10.55,6.35.6.37,1.28.77,1.18,1.64Z"/>
          <path class="cls-4" d="M49.14,58.49c-.8,0-1.62-.22-2.38-.65-1.89-1.07-3.76-2.2-5.57-3.29-.68-.41-1.37-.83-2.06-1.24-.27-.16-.54-.32-.82-.48-.82-.48-1.66-.98-2.49-1.54-1.83-1.24-3.19-3.51-1.56-6.15,1.29-2.09,4-2.63,6.31-1.26,3.85,2.28,7.31,4.37,10.57,6.36.71.43,2.52,1.54,2.35,3.82-.02,1.6-.8,3.01-2.12,3.8-.69.41-1.46.62-2.24.62Z"/>
        </g>
        <g>
          <path class="cls-4" d="M129.88,55.85c-1.1.09-1.63-.63-1.95-1.5-.35-.94.25-1.56.96-2,2.65-1.62,5.32-3.2,7.98-4.8.93-.56,1.87-1.09,2.79-1.68.39-.25.81-.39,1.24-.46.88-.14,1.55.13,2.02.96.49.86.29,1.52-.38,2.16-1.19,1.13-2.72,1.71-4.07,2.57-2.37,1.51-4.82,2.89-7.22,4.37-.45.28-.89.35-1.37.38Z"/>
          <path class="cls-4" d="M129.73,58.29c-1.1,0-3.09-.4-4.08-3.11-.26-.71-.89-3.16,1.97-4.92,1.97-1.21,3.98-2.41,5.92-3.57.69-.41,1.39-.83,2.08-1.24.3-.18.59-.35.89-.53.64-.38,1.25-.74,1.84-1.11.65-.41,1.37-.68,2.16-.81,1.93-.31,3.58.48,4.54,2.17,1.01,1.79.71,3.66-.82,5.12-1.02.97-2.17,1.59-3.18,2.14-.45.25-.88.48-1.27.72-1.39.88-2.81,1.73-4.19,2.54-1.01.6-2.05,1.22-3.06,1.84-.91.56-1.8.69-2.47.74-.1,0-.21.01-.34.01ZM141.33,47.81h0ZM140.91,46.7h0Z"/>
        </g>
        <g>
          <path class="cls-4" d="M38.88,69.84c2.07,0,4.15-.01,6.22,0,1.32,0,2.32.89,2.3,1.99-.02,1.07-.95,1.86-2.29,1.86-4.19.02-8.38.02-12.57,0-1.3,0-2.09-.75-2.1-1.85,0-1.21.76-1.98,2.09-1.99,2.11-.02,4.23,0,6.34,0h0Z"/>
          <path class="cls-4" d="M38.61,76.16c-2.07,0-4.08,0-6.07-.01-2.61-.01-4.51-1.81-4.53-4.27-.02-2.59,1.83-4.42,4.5-4.45,1.5-.02,3.02-.01,4.49,0,.05,0,.1,0,.15,0h1.73c.62,0,1.23,0,1.85,0,1.44,0,2.93,0,4.39,0,1.34,0,2.62.53,3.5,1.44.81.83,1.24,1.9,1.22,3.04-.04,2.42-2.07,4.25-4.72,4.26-2.25,0-4.41.01-6.51.01ZM32.46,72.31h0ZM32.45,71.26h0Z"/>
        </g>
        <g>
          <path class="cls-4" d="M143.54,69.87c2.03,0,4.06-.01,6.09,0,1.37.01,2.12.72,2.13,1.94.01,1.14-.83,1.92-2.18,1.93-4.02.02-8.04.03-12.06.02-1.24,0-2.12-.92-2.11-2.13.01-1.05.79-1.74,2.04-1.75,2.03-.01,4.06,0,6.09,0h0Z"/>
          <path class="cls-4" d="M140.19,76.21c-.87,0-1.76,0-2.67,0-1.25,0-2.41-.47-3.25-1.33-.85-.86-1.31-2.02-1.3-3.27.02-2.4,1.9-4.15,4.46-4.17,1.36,0,2.73,0,4.07,0h2.04c.6-.01,1.21-.01,1.81-.01,1.41,0,2.86,0,4.3,0,2.7.02,4.53,1.78,4.55,4.36.01,1.17-.42,2.25-1.2,3.05-.84.86-2.05,1.33-3.4,1.34-2.91.02-6.01.02-9.41.02ZM137.37,72.34h0ZM149.78,72.33h0Z"/>
        </g>
        <path class="cls-7" d="M137.36,179.98H55.19c.02-.66.44-.96.75-1.29,3.84-4.13,7.83-7.95,12.35-10.89,4.99-3.24,9.64-7.17,13.87-11.89,2.94-3.28,6.13-6.15,9.94-7.56,4.67-1.72,9.28-1.27,13.8,1.05,4.85,2.49,8.93,6.48,12.84,10.75,3.51,3.82,6.82,7.93,10.31,11.78,2.59,2.85,5.26,5.58,8.3,8.05Z"/>
        <g>
          <path class="cls-4" d="M89.49,46.58c15.84-.8,26.77,10.33,31.9,21.79,1.52,3.4,2.16,6.96,2.56,10.58.54,5.01-1.04,9.61-3.17,14.01-7.14,14.7-16.34,28.1-26.02,41.19-.49.67-1.07,1.28-1.66,1.87-2.14,2.11-4.59,2.18-6.48-.14-2.96-3.64-5.76-7.42-8.51-11.22-5.32-7.36-10.44-14.87-14.88-22.79-2.25-4.01-4.67-7.94-6.22-12.35-1.76-4.96-1.93-9.84-.93-14.99,1.92-9.92,7.55-17.21,15.55-22.86,5.37-3.79,11.51-5.36,17.88-5.09ZM89.7,96.04c8.65.02,15.64-6.93,15.64-15.58,0-8.72-7.81-15.66-15.99-15.58-8.02.08-15.21,7.21-15.27,15.34-.07,8.79,6.86,15.81,15.63,15.83Z"/>
          <path class="cls-4" d="M89.78,138.22c-.07,0-.14,0-.22,0-1.26-.07-2.45-.74-3.43-1.95-3.14-3.86-6.08-7.85-8.54-11.25-4.37-6.04-10.01-14.09-14.92-22.85-.35-.63-.71-1.26-1.07-1.88-1.9-3.34-3.87-6.8-5.2-10.56-1.71-4.83-2.02-9.84-.96-15.31,1.83-9.43,7-17.03,15.8-23.24,5.29-3.73,11.43-5.48,18.23-5.2,7.47-.37,14.31,1.79,20.34,6.43,6.4,4.92,10.12,11.27,12.12,15.73,1.68,3.76,2.28,7.73,2.61,10.76.61,5.57-1.41,10.59-3.23,14.34-7.48,15.4-17.38,29.52-26.08,41.29-.57.77-1.22,1.44-1.73,1.94-1.17,1.16-2.46,1.77-3.74,1.77ZM88.09,47.16c-6,0-11.41,1.68-16.13,5.01-8.54,6.02-13.54,13.37-15.31,22.48-1.03,5.33-.74,10,.91,14.67,1.3,3.66,3.23,7.07,5.11,10.36.36.63.72,1.26,1.07,1.89,4.88,8.7,10.5,16.72,14.84,22.73,2.45,3.38,5.37,7.36,8.49,11.2.77.95,1.63,1.45,2.55,1.5.99.05,2.04-.43,3.03-1.41.7-.7,1.2-1.25,1.6-1.79,15.44-20.9,21.79-32.5,25.96-41.1,1.75-3.6,3.69-8.42,3.12-13.68-.34-3.13-.9-6.81-2.51-10.4-1.94-4.33-5.55-10.49-11.75-15.26-5.8-4.46-12.38-6.54-19.57-6.17h-.03s-.03,0-.03,0c-.46-.02-.92-.03-1.38-.03ZM89.74,96.65h-.05c-4.4-.01-8.5-1.72-11.55-4.8-3.06-3.09-4.72-7.23-4.69-11.65.07-8.41,7.49-15.86,15.88-15.94,4.26-.04,8.56,1.76,11.76,4.93,3.12,3.09,4.84,7.09,4.85,11.26,0,4.34-1.68,8.41-4.74,11.47-3.06,3.05-7.12,4.73-11.46,4.73ZM89.7,95.43c4.02.01,7.81-1.54,10.64-4.37,2.83-2.82,4.39-6.59,4.38-10.6,0-3.85-1.6-7.54-4.48-10.4-2.94-2.91-6.86-4.58-10.76-4.58-.04,0-.09,0-.13,0-7.75.07-14.61,6.96-14.67,14.73-.03,4.09,1.51,7.92,4.33,10.78,2.82,2.85,6.62,4.43,10.69,4.44Z"/>
        </g>
        <path class="cls-4" d="M64.72,91.62l-1.45-3.6c-1.37-3.41-2.07-7.01-2.07-10.71,0-15.83,12.88-28.71,28.71-28.71s28.71,12.88,28.71,28.71c0,3.7-.69,7.3-2.07,10.71l-1.45,3.6-3.83-.59c-14-2.17-28.73-2.17-42.73,0l-3.83.59ZM89.92,79.62c6.24,0,12.48.39,18.63,1.16.21-1.14.32-2.29.32-3.47,0-10.45-8.5-18.94-18.94-18.94s-18.94,8.5-18.94,18.94c0,1.17.11,2.33.32,3.47,6.14-.77,12.39-1.16,18.63-1.16Z"/>
        <g class="cls-8">
          <path class="cls-4" d="M89.92,305.46c-17.62,0-34.72-3.01-50.83-8.94-15.6-5.74-29.63-13.98-41.69-24.47-12.12-10.55-21.64-22.85-28.31-36.56-6.93-14.27-10.45-29.43-10.45-45.07s3.52-30.8,10.45-45.07c6.67-13.71,16.19-26.02,28.31-36.56,12.06-10.49,26.08-18.73,41.69-24.47,16.11-5.93,33.21-8.94,50.83-8.94s34.72,3.01,50.83,8.94c15.6,5.74,29.63,13.98,41.69,24.47,12.12,10.55,21.64,22.85,28.31,36.56,6.93,14.27,10.45,29.43,10.45,45.07s-3.52,30.8-10.45,45.07c-6.67,13.71-16.19,26.02-28.31,36.56-12.06,10.49-26.08,18.73-41.69,24.47-16.11,5.93-33.21,8.94-50.83,8.94ZM89.92,87.58c-16.18,0-31.86,2.75-46.62,8.19-14.21,5.23-26.96,12.71-37.89,22.22-10.87,9.46-19.4,20.46-25.34,32.69-6.12,12.59-9.22,25.96-9.22,39.74s3.1,27.14,9.22,39.74c5.94,12.23,14.47,23.23,25.34,32.69,10.93,9.52,23.68,16.99,37.89,22.22,14.76,5.43,30.44,8.19,46.62,8.19s31.86-2.75,46.62-8.19c14.21-5.23,26.96-12.71,37.89-22.22,10.87-9.46,19.4-20.46,25.34-32.69,6.12-12.59,9.22-25.96,9.22-39.74s-3.1-27.14-9.22-39.74c-5.94-12.23-14.47-23.23-25.34-32.69-10.93-9.52-23.68-16.99-37.89-22.22-14.76-5.43-30.44-8.19-46.62-8.19Z"/>
        </g>
        <circle class="cls-5" cx="89.75" cy="81.4" r="17.49"/>
      </g>
    </g>
  </g>
</svg>