<?xml version="1.0" encoding="UTF-8"?>
<svg id="Layer_1" xmlns="http://www.w3.org/2000/svg" xmlns:xlink="http://www.w3.org/1999/xlink" viewBox="0 0 737.24 737.24">
  <defs>
    <style>
      .cls-1, .cls-2 {
        fill: none;
      }

      .cls-2 {
        stroke: #fff;
        stroke-miterlimit: 10;
        stroke-width: 20px;
      }

      .cls-3 {
        fill: #fff;
      }

      .cls-4 {
        fill: #f3f1f2;
      }

      .cls-5 {
        fill: #fcc02e;
      }

      .cls-6 {
        fill: #f4a918;
      }

      .cls-7 {
        clip-path: url(#clippath);
      }
    </style>
    <clipPath id="clippath">
      <rect class="cls-1" width="737.24" height="737.24" rx="110.95" ry="110.95"/>
    </clipPath>
  </defs>
  <rect class="cls-5" width="737.24" height="737.24" rx="110.95" ry="110.95"/>
  <path class="cls-6" d="M336.59,533.03s-31.89,6.9-18.1,15.86c13.79,8.97,33.79,16.55,31.72,27.58s-6.68,44.83,18.04,35.86,30.23-62.76,65.4-62.76,41.38-23.45,17.93-30.34c-23.45-6.9-51.58-49.65-61.3-47.58s-21.12,64.82-53.69,61.38Z"/>
  <path class="cls-6" d="M52.96,412.89c4.6,2.89,10.2,20.4,15.22,21.03,15.29,1.91,30.69,2.53,46.08,3.37,12.67.69,25.38,2.04,37.76,5.53,15.01,4.23,23.87,18.4,20.75,33.82-2.3,11.36,2.95,21.64,14.28,28.33,10.84,6.4,23.1,8.05,35.03,10.64,15.23,3.3,30.75,5.51,44.58,13.39,5.57,3.17,10.46,7.53,13.18,13.33,4.79,10.18.98,22.53-8,29.55-12.26,9.58-26.29,15.63-40.68,20.86-12.04,4.38-22.34,11.48-32.1,19.52-20.27,16.72-37.3,36.49-53.24,57.35-13.81,18.08-29.29,34.58-47.47,48.41-5.05,3.84-12.76,13.29-19.22,14.55-15.46-5.26-31.82-12.23-42.76-24.24C9.63,678.91-.07,666.27-.07,598.53-.07,562.42.05,494.93,0,458.83c0-5.47,3.43-8.03,6.47-11.51,9.75-11.16,19.65-16.91,29.88-27.61,5.16-5.39,10.42-2.56,16.61-6.83Z"/>
  <path class="cls-6" d="M719.12,685.13c-6.55-7.19-19.27-21.56-26.21-28.34-19.65-19.2-40.74-36.52-65.62-48.23-21.12-9.94-42.55-19.19-63.8-28.83-13.86-6.29-27.45-13.22-38.79-23.69-7.87-7.27-13.97-16.07-14.29-27.48-.29-10.17,4.53-18.6,10.37-26.35,8.06-10.7,18.63-18.88,27.88-28.39,14-14.39,12.45-22.86,3.61-38.5-6.66-11.79-17.72-19.11-27.96-27.17-9.47-7.45-19-14.73-26.62-24.38-13.54-17.14-7.7-36.6,7.28-48.01,1.93-1.47,3.61-3.68,6.45-3.47,10.26,1.42,19.93,5.13,29.48,8.84,22.28,8.66,44.44,17.66,65.58,29.08,29.84,16.12,57.2,10.58,82.34,33.55,15.85,14.48,30.33,30.39,45.27,45.82,1.64,1.7,2.33,3.54,2.34,5.91.14,39.65-.02,104.47.4,144.11.4,37.79-.18,58.83-14.81,81.46-.91,1.4-1.93,2.72-2.91,4.07Z"/>
  <path class="cls-3" d="M359.55,80.93c1.54-.32,1.69-1.95,2.64-2.83,2.08-1.94,4.31-4.14,7.32-3.09,3.43,1.19,5.91,3.62,5.91,7.73,0,8.99.02,17.99.04,26.98.02,9.66-.1,19.33.11,28.98.09,4.27-.29,7.78-4.84,9.82-4.61,2.07-7.03-.93-9.8-3.47-.36-.33-.78-.59-1.17-.89-.07-21.08-.14-42.16-.21-63.23Z"/>
  <path class="cls-3" d="M311.36,160.15c.28,4.25-2.9,5.98-6.13,7.26-3.94,1.57-6.85-.79-8.81-3.76-5-7.55-9.74-15.28-14.46-23.01-4.55-7.45-8.89-15.03-13.43-22.48-3.14-5.16-2.13-10.25,2.84-13.19,3.62-2.14,8.62-.4,11.28,4.09,9.13,15.44,18.17,30.94,27.38,46.34.91,1.53,1.41,2.93,1.35,4.75Z"/>
  <path class="cls-3" d="M427.2,159.69c0-1.93.24-3.33,1.08-4.68,9.69-15.49,19.33-31.02,29.01-46.52,2.02-3.24,4.93-4.77,8.84-4.26,3.5.45,4.77,3.1,6.17,5.8,1.42,2.74.08,5.1-1.27,6.99-10.58,14.79-18.83,31.04-29,46.08-3.31,4.89-8.2,5.76-12.24,2.34-1.86-1.58-2.87-3.63-2.58-5.75Z"/>
  <path class="cls-3" d="M261.32,205.95c.15,6.86-6.45,10.72-12.71,7.17-10.46-5.92-20.7-12.24-31.02-18.42-4.38-2.62-8.85-5.11-13.07-7.97-5.28-3.58-6.22-7.24-3.48-11.67,2.38-3.85,7.34-4.73,12.25-1.82,14.45,8.58,28.86,17.23,43.2,26,2.45,1.5,5.25,3.17,4.85,6.71Z"/>
  <path class="cls-3" d="M485.97,214.38c-4.52.36-6.66-2.56-7.98-6.15-1.42-3.87,1.03-6.41,3.93-8.18,10.84-6.65,21.78-13.13,32.69-19.66,3.81-2.28,7.67-4.48,11.42-6.86,1.6-1.02,3.3-1.61,5.09-1.9,3.61-.59,6.36.53,8.28,3.93,2,3.54,1.18,6.22-1.56,8.84-4.86,4.63-11.13,7.01-16.68,10.54-9.72,6.18-19.76,11.84-29.57,17.88-1.84,1.13-3.66,1.42-5.62,1.56Z"/>
  <path class="cls-3" d="M207.98,262.1c8.5,0,16.99-.04,25.49.02,5.4.04,9.5,3.66,9.43,8.17-.07,4.37-3.88,7.61-9.38,7.63-17.16.07-34.32.08-51.47,0-5.31-.02-8.56-3.06-8.6-7.58-.04-4.95,3.13-8.1,8.55-8.17,8.66-.1,17.32-.03,25.99-.03v-.04Z"/>
  <path class="cls-3" d="M530.21,262.04c8.32,0,16.64-.05,24.95.02,5.62.05,8.69,2.93,8.74,7.96.05,4.69-3.41,7.87-8.92,7.9-16.47.09-32.94.11-49.41.09-5.09,0-8.7-3.75-8.65-8.73.04-4.29,3.25-7.13,8.34-7.17,8.32-.06,16.64-.02,24.96-.02v-.06Z"/>
  <path class="cls-6" d="M359.55,80.93c.07,21.08.14,42.16.21,63.23-1.99-.96-1.42-2.81-1.42-4.38-.03-18.08-.02-36.16-.01-54.24,0-1.63-.27-3.37,1.23-4.61Z"/>
  <path class="cls-6" d="M607.77,735.74h-336.56c.08-2.13,1.82-3.1,3.06-4.15,15.73-13.3,32.07-25.62,50.58-35.07,20.43-10.43,39.5-23.08,56.82-38.29,12.04-10.57,25.12-19.82,40.73-24.35,19.14-5.55,38.03-4.1,56.53,3.37,19.86,8.02,36.57,20.88,52.6,34.62,14.36,12.31,27.92,25.55,42.23,37.93,10.6,9.17,21.56,17.97,34.01,25.93Z"/>
  <path class="cls-4" d="M367.81,356.25c34.55-1.74,58.39,22.54,69.57,47.53,3.31,7.41,4.72,15.17,5.58,23.08,1.19,10.92-2.26,20.96-6.92,30.55-15.57,32.05-35.65,61.28-56.75,89.84-1.08,1.46-2.34,2.8-3.63,4.07-4.66,4.59-10.02,4.76-14.14-.31-6.46-7.94-12.57-16.18-18.57-24.48-11.6-16.05-22.76-32.42-32.45-49.7-4.91-8.75-10.18-17.33-13.57-26.93-3.83-10.82-4.22-21.46-2.04-32.7,4.2-21.63,16.47-37.54,33.93-49.85,11.72-8.27,25.1-11.69,39.01-11.1ZM368.25,464.13c18.87.05,34.12-15.12,34.1-33.99-.01-19.01-17.04-34.16-34.88-33.99-17.49.17-33.17,15.73-33.31,33.45-.15,19.17,14.95,34.47,34.09,34.53Z"/>
  <path class="cls-2" d="M368.26,307.42c30.91,0,61.18,2.38,90.58,6.94,4.52-11.25,7.02-23.53,7.02-36.4,0-53.9-43.7-97.6-97.6-97.6s-97.6,43.7-97.6,97.6c0,12.87,2.49,25.15,7.02,36.4,29.4-4.56,59.67-6.94,90.58-6.94Z"/>
  <g class="cls-7">
    <ellipse class="cls-2" cx="368.26" cy="753.65" rx="512.74" ry="446.23"/>
  </g>
</svg>